<?xml version="1.0"?>
<!-- Generated by SVGo -->
<svg width="69" height="19"
     viewBox="114 119 69 19"
     xmlns="http://www.w3.org/2000/svg"
     xmlns:xlink="http://www.w3.org/1999/xlink">
<circle cx="151" cy="124" r="1" />
<circle cx="143" cy="131" r="1" />
<circle cx="168" cy="125" r="1" />
<circle cx="143" cy="128" r="1" />
<circle cx="179" cy="133" r="1" />
<circle cx="151" cy="133" r="1" />
<circle cx="160" cy="133" r="1" />
<circle cx="164" cy="132" r="1" />
<circle cx="154" cy="133" r="1" />
<circle cx="162" cy="124" r="1" />
<circle cx="130" cy="128" r="1" />
<circle cx="132" cy="130" r="1" />
<circle cx="127" cy="127" r="1" />
<circle cx="132" cy="127" r="1" />
<circle cx="159" cy="126" r="1" />
<circle cx="138" cy="133" r="1" />
<circle cx="175" cy="131" r="1" />
<circle cx="127" cy="133" r="1" />
<circle cx="175" cy="133" r="1" />
<circle cx="124" cy="131" r="1" />
<circle cx="119" cy="133" r="1" />
<circle cx="119" cy="127" r="1" />
<circle cx="132" cy="127" r="1" />
<circle cx="151" cy="127" r="1" />
<circle cx="172" cy="126" r="1" />
<circle cx="124" cy="128" r="1" />
<circle cx="151" cy="129" r="1" />
<circle cx="159" cy="125" r="1" />
<circle cx="124" cy="131" r="1" />
<circle cx="127" cy="125" r="1" />
<circle cx="143" cy="125" r="1" />
<circle cx="159" cy="131" r="1" />
<circle cx="175" cy="128" r="1" />
<circle cx="175" cy="129" r="1" />
<circle cx="159" cy="126" r="1" />
<circle cx="124" cy="128" r="1" />
<circle cx="139" cy="127" r="1" />
<circle cx="119" cy="133" r="1" />
<circle cx="167" cy="128" r="1" />
<circle cx="132" cy="129" r="1" />
<circle cx="151" cy="128" r="1" />
<circle cx="127" cy="133" r="1" />
<circle cx="124" cy="127" r="1" />
<circle cx="167" cy="128" r="1" />
<circle cx="164" cy="132" r="1" />
<circle cx="129" cy="128" r="1" />
<circle cx="136" cy="124" r="1" />
<circle cx="155" cy="133" r="1" />
<circle cx="179" cy="133" r="1" />
<circle cx="120" cy="129" r="1" />
<circle cx="143" cy="128" r="1" />
<circle cx="176" cy="133" r="1" />
<circle cx="167" cy="130" r="1" />
<circle cx="153" cy="133" r="1" />
<circle cx="132" cy="132" r="1" />
<circle cx="124" cy="126" r="1" />
<circle cx="127" cy="128" r="1" />
<circle cx="135" cy="132" r="1" />
<circle cx="161" cy="133" r="1" />
<circle cx="169" cy="129" r="1" />
<circle cx="127" cy="132" r="1" />
<circle cx="151" cy="125" r="1" />
<circle cx="136" cy="124" r="1" />
<circle cx="119" cy="133" r="1" />
<circle cx="129" cy="128" r="1" />
<circle cx="179" cy="133" r="1" />
<circle cx="180" cy="133" r="1" />
<circle cx="143" cy="125" r="1" />
<circle cx="124" cy="129" r="1" />
<circle cx="171" cy="125" r="1" />
<circle cx="177" cy="133" r="1" />
<circle cx="138" cy="128" r="1" />
<circle cx="124" cy="131" r="1" />
<circle cx="175" cy="128" r="1" />
<circle cx="139" cy="133" r="1" />
<circle cx="121" cy="124" r="1" />
<circle cx="172" cy="131" r="1" />
<circle cx="143" cy="126" r="1" />
<circle cx="152" cy="133" r="1" />
<circle cx="143" cy="130" r="1" />
<circle cx="151" cy="126" r="1" />
<circle cx="172" cy="130" r="1" />
<circle cx="156" cy="133" r="1" />
<circle cx="132" cy="129" r="1" />
<circle cx="143" cy="124" r="1" />
<circle cx="124" cy="133" r="1" />
<circle cx="140" cy="124" r="1" />
<circle cx="137" cy="129" r="1" />
<circle cx="120" cy="125" r="1" />
<circle cx="167" cy="126" r="1" />
<circle cx="146" cy="133" r="1" />
<circle cx="143" cy="127" r="1" />
<circle cx="167" cy="127" r="1" />
<circle cx="143" cy="133" r="1" />
<circle cx="159" cy="127" r="1" />
<circle cx="124" cy="126" r="1" />
<circle cx="159" cy="128" r="1" />
<circle cx="169" cy="129" r="1" />
<circle cx="172" cy="128" r="1" />
<circle cx="140" cy="124" r="1" />
<circle cx="138" cy="124" r="1" />
<circle cx="119" cy="126" r="1" />
<circle cx="139" cy="127" r="1" />
<circle cx="144" cy="133" r="1" />
<circle cx="123" cy="129" r="1" />
<circle cx="127" cy="124" r="1" />
<circle cx="143" cy="133" r="1" />
<circle cx="177" cy="133" r="1" />
<circle cx="124" cy="130" r="1" />
<circle cx="146" cy="133" r="1" />
<circle cx="132" cy="132" r="1" />
<circle cx="175" cy="133" r="1" />
<circle cx="177" cy="133" r="1" />
<circle cx="144" cy="133" r="1" />
<circle cx="159" cy="129" r="1" />
<circle cx="175" cy="127" r="1" />
<circle cx="175" cy="124" r="1" />
<circle cx="151" cy="131" r="1" />
<circle cx="119" cy="129" r="1" />
<circle cx="172" cy="126" r="1" />
<circle cx="159" cy="128" r="1" />
<circle cx="122" cy="124" r="1" />
<circle cx="175" cy="127" r="1" />
<circle cx="172" cy="131" r="1" />
<circle cx="167" cy="133" r="1" />
<circle cx="159" cy="125" r="1" />
<circle cx="127" cy="128" r="1" />
<circle cx="135" cy="124" r="1" />
<circle cx="170" cy="129" r="1" />
<circle cx="132" cy="128" r="1" />
<circle cx="119" cy="131" r="1" />
<circle cx="127" cy="130" r="1" />
<circle cx="172" cy="129" r="1" />
<circle cx="144" cy="133" r="1" />
<circle cx="168" cy="125" r="1" />
<circle cx="161" cy="124" r="1" />
<circle cx="160" cy="124" r="1" />
<circle cx="140" cy="126" r="1" />
<circle cx="172" cy="130" r="1" />
<circle cx="175" cy="126" r="1" />
<circle cx="143" cy="125" r="1" />
<circle cx="119" cy="132" r="1" />
<circle cx="119" cy="131" r="1" />
<circle cx="175" cy="125" r="1" />
<circle cx="143" cy="130" r="1" />
<circle cx="123" cy="125" r="1" />
<circle cx="151" cy="127" r="1" />
<circle cx="175" cy="125" r="1" />
<circle cx="175" cy="132" r="1" />
<circle cx="151" cy="133" r="1" />
<circle cx="175" cy="131" r="1" />
<circle cx="119" cy="130" r="1" />
<circle cx="164" cy="125" r="1" />
<circle cx="162" cy="133" r="1" />
<circle cx="164" cy="125" r="1" />
<circle cx="127" cy="132" r="1" />
<circle cx="175" cy="127" r="1" />
<circle cx="136" cy="133" r="1" />
<circle cx="119" cy="126" r="1" />
<circle cx="163" cy="124" r="1" />
<circle cx="151" cy="129" r="1" />
<circle cx="120" cy="125" r="1" />
<circle cx="163" cy="124" r="1" />
<circle cx="170" cy="124" r="1" />
<circle cx="161" cy="124" r="1" />
<circle cx="124" cy="127" r="1" />
<circle cx="175" cy="130" r="1" />
<circle cx="170" cy="124" r="1" />
<circle cx="124" cy="127" r="1" />
<circle cx="135" cy="124" r="1" />
<circle cx="136" cy="130" r="1" />
<circle cx="122" cy="124" r="1" />
<circle cx="137" cy="133" r="1" />
<circle cx="127" cy="126" r="1" />
<circle cx="175" cy="129" r="1" />
<circle cx="143" cy="133" r="1" />
<circle cx="159" cy="129" r="1" />
<circle cx="172" cy="128" r="1" />
<circle cx="124" cy="132" r="1" />
<circle cx="152" cy="133" r="1" />
<circle cx="122" cy="129" r="1" />
<circle cx="167" cy="131" r="1" />
<circle cx="180" cy="133" r="1" />
<circle cx="148" cy="133" r="1" />
<circle cx="122" cy="124" r="1" />
<circle cx="124" cy="132" r="1" />
<circle cx="121" cy="129" r="1" />
<circle cx="137" cy="133" r="1" />
<circle cx="119" cy="131" r="1" />
<circle cx="143" cy="129" r="1" />
<circle cx="127" cy="127" r="1" />
<circle cx="172" cy="130" r="1" />
<circle cx="151" cy="124" r="1" />
<circle cx="159" cy="132" r="1" />
<circle cx="159" cy="131" r="1" />
<circle cx="175" cy="125" r="1" />
<circle cx="159" cy="128" r="1" />
<circle cx="124" cy="126" r="1" />
<circle cx="119" cy="130" r="1" />
<circle cx="171" cy="129" r="1" />
<circle cx="123" cy="129" r="1" />
<circle cx="167" cy="129" r="1" />
<circle cx="136" cy="130" r="1" />
<circle cx="143" cy="132" r="1" />
<circle cx="140" cy="133" r="1" />
<circle cx="138" cy="124" r="1" />
<circle cx="123" cy="125" r="1" />
<circle cx="127" cy="129" r="1" />
<circle cx="138" cy="128" r="1" />
<circle cx="151" cy="133" r="1" />
<circle cx="135" cy="133" r="1" />
<circle cx="128" cy="128" r="1" />
<circle cx="132" cy="133" r="1" />
<circle cx="151" cy="132" r="1" />
<circle cx="139" cy="124" r="1" />
<circle cx="123" cy="125" r="1" />
<circle cx="151" cy="131" r="1" />
<circle cx="168" cy="129" r="1" />
<circle cx="163" cy="133" r="1" />
<circle cx="120" cy="129" r="1" />
<circle cx="159" cy="130" r="1" />
<circle cx="143" cy="127" r="1" />
<circle cx="167" cy="129" r="1" />
<circle cx="178" cy="133" r="1" />
<circle cx="151" cy="129" r="1" />
<circle cx="151" cy="128" r="1" />
<circle cx="167" cy="132" r="1" />
<circle cx="162" cy="124" r="1" />
<circle cx="152" cy="133" r="1" />
<circle cx="127" cy="131" r="1" />
<circle cx="159" cy="130" r="1" />
<circle cx="127" cy="130" r="1" />
<circle cx="151" cy="130" r="1" />
<circle cx="127" cy="124" r="1" />
<circle cx="132" cy="125" r="1" />
<circle cx="178" cy="133" r="1" />
<circle cx="160" cy="124" r="1" />
<circle cx="120" cy="129" r="1" />
<circle cx="129" cy="128" r="1" />
<circle cx="119" cy="129" r="1" />
<circle cx="127" cy="128" r="1" />
<circle cx="170" cy="124" r="1" />
<circle cx="175" cy="133" r="1" />
<circle cx="151" cy="127" r="1" />
<circle cx="137" cy="124" r="1" />
<circle cx="159" cy="132" r="1" />
<circle cx="151" cy="126" r="1" />
<circle cx="147" cy="133" r="1" />
<circle cx="124" cy="130" r="1" />
<circle cx="138" cy="128" r="1" />
<circle cx="180" cy="133" r="1" />
<circle cx="122" cy="129" r="1" />
<circle cx="159" cy="126" r="1" />
<circle cx="163" cy="133" r="1" />
<circle cx="151" cy="124" r="1" />
<circle cx="132" cy="124" r="1" />
<circle cx="135" cy="131" r="1" />
<circle cx="159" cy="130" r="1" />
<circle cx="151" cy="131" r="1" />
<circle cx="127" cy="126" r="1" />
<circle cx="169" cy="129" r="1" />
<circle cx="123" cy="129" r="1" />
<circle cx="127" cy="124" r="1" />
<circle cx="127" cy="127" r="1" />
<circle cx="124" cy="129" r="1" />
<circle cx="122" cy="129" r="1" />
<circle cx="159" cy="127" r="1" />
<circle cx="151" cy="132" r="1" />
<circle cx="167" cy="128" r="1" />
<circle cx="140" cy="124" r="1" />
<circle cx="131" cy="128" r="1" />
<circle cx="178" cy="133" r="1" />
<circle cx="164" cy="132" r="1" />
<circle cx="167" cy="126" r="1" />
<circle cx="132" cy="124" r="1" />
<circle cx="132" cy="132" r="1" />
<circle cx="119" cy="128" r="1" />
<circle cx="172" cy="132" r="1" />
<circle cx="135" cy="132" r="1" />
<circle cx="167" cy="132" r="1" />
<circle cx="159" cy="131" r="1" />
<circle cx="172" cy="131" r="1" />
<circle cx="175" cy="130" r="1" />
<circle cx="146" cy="133" r="1" />
<circle cx="163" cy="124" r="1" />
<circle cx="160" cy="124" r="1" />
<circle cx="132" cy="124" r="1" />
<circle cx="168" cy="125" r="1" />
<circle cx="140" cy="133" r="1" />
<circle cx="172" cy="127" r="1" />
<circle cx="140" cy="125" r="1" />
<circle cx="151" cy="126" r="1" />
<circle cx="143" cy="127" r="1" />
<circle cx="135" cy="132" r="1" />
<circle cx="138" cy="124" r="1" />
<circle cx="139" cy="124" r="1" />
<circle cx="175" cy="130" r="1" />
<circle cx="175" cy="132" r="1" />
<circle cx="132" cy="131" r="1" />
<circle cx="171" cy="129" r="1" />
<circle cx="172" cy="128" r="1" />
<circle cx="155" cy="133" r="1" />
<circle cx="138" cy="133" r="1" />
<circle cx="169" cy="124" r="1" />
<circle cx="172" cy="133" r="1" />
<circle cx="119" cy="130" r="1" />
<circle cx="147" cy="133" r="1" />
<circle cx="132" cy="126" r="1" />
<circle cx="159" cy="125" r="1" />
<circle cx="127" cy="129" r="1" />
<circle cx="171" cy="129" r="1" />
<circle cx="145" cy="133" r="1" />
<circle cx="124" cy="129" r="1" />
<circle cx="167" cy="130" r="1" />
</svg>
